<svg width="30" height="30" viewBox="0 0 30 30" fill="none" xmlns="http://www.w3.org/2000/svg">
<g clip-path="url(#clip0)">
<path d="M25.6066 4.39339C19.7473 -1.46591 10.2527 -1.46591 4.3934 4.39339C-1.46587 10.2527 -1.4659 19.7473 4.3934 25.6066C10.2527 31.4659 19.7473 31.4659 25.6066 25.6066C31.4659 19.7473 31.4659 10.2527 25.6066 4.39339ZM20.5234 20.983L6.35382 14.6994C5.70773 14.3963 5.58049 13.6945 6.452 13.1306L6.45016 13.1306L16.3948 6.66851C17.1054 6.21596 17.5925 6.42017 17.8019 7.17762L18.4993 11.7836L21.0105 11.8304C21.2933 11.8304 21.5319 11.8304 21.8059 12.1044L18.9191 14.6145L9.56497 14.1399C9.16283 14.1144 9.31847 14.482 9.78777 14.5766L19.6845 16.8261L21.486 20.2608C21.8739 21.0096 21.4983 21.4099 20.5234 20.983Z" fill="black"/>
</g>
<defs>
<clipPath id="clip0">
<rect width="30" height="30" fill="white" transform="translate(0 30) rotate(-90)"/>
</clipPath>
</defs>
</svg>
